<svg xmlns="http://www.w3.org/2000/svg" width="32" height="32" viewBox="0 0 32 32">
  <circle cx="16" cy="16" r="14" fill="#62ef62" stroke="#121c2b" stroke-width="2.5"/>
  <g transform="translate(6, 5)" fill="none" stroke="#121c2b" stroke-width="1.8" stroke-linecap="round" stroke-linejoin="round">
    <path d="m6.5 1.5 1.5 1.5"/>
    <path d="M11.5 3 13.5 1.5"/>
    <path d="M7.5 5.5v-.8a2.4 2.4 0 1 1 4.8 0v.8"/>
    <path d="M10 16c-2.6 0-4.8-2.2-4.8-4.8V8.8A3.2 3.2 0 0 1 8.4 5.6h3.2a3.2 3.2 0 0 1 3.2 3.2v2.4c0 2.6-2.2 4.8-4.8 4.8"/>
    <path d="M10 16V8.8"/>
    <path d="M5.6 7.2C4 7 2.8 5.7 2.8 4"/>
    <path d="M5.2 10.4H2"/>
    <path d="M2.8 16.8c0-1.7 1.3-3.1 3-3.2"/>
    <path d="M14.4 7.2c1.6-.2 2.8-1.5 2.8-3.2"/>
    <path d="M14.8 10.4H18"/>
    <path d="M14.2 13.6c1.7.1 3 1.5 3 3.2"/>
  </g>
</svg>
